<svg xmlns="http://www.w3.org/2000/svg" width="16" height="354" viewBox="0 0 16 354" fill="none">
  <path
    d="M8.70711 0.473557C8.31658 0.083033 7.68342 0.083033 7.29289 0.473557L0.928932 6.83752C0.538408 7.22804 0.538408 7.86121 0.928932 8.25173C1.31946 8.64226 1.95262 8.64226 2.34315 8.25173L8 2.59488L13.6569 8.25173C14.0474 8.64226 14.6805 8.64226 15.0711 8.25173C15.4616 7.86121 15.4616 7.22804 15.0711 6.83752L8.70711 0.473557ZM7.29288 353.253C7.6834 353.644 8.31657 353.644 8.70709 353.253L15.0711 346.889C15.4616 346.499 15.4616 345.865 15.0711 345.475C14.6805 345.084 14.0474 345.084 13.6568 345.475L7.99998 351.132L2.34313 345.475C1.95261 345.084 1.31944 345.084 0.928917 345.475C0.538393 345.865 0.538393 346.499 0.928917 346.889L7.29288 353.253ZM7 1.18066L6.99998 352.546L8.99998 352.546L9 1.18066L7 1.18066Z"
    fill="#9F8C6C" />
</svg>