<svg width="1419" height="16" viewBox="0 0 1419 16" fill="none" xmlns="http://www.w3.org/2000/svg">
<mask maskUnits="userSpaceOnUse" x="0" y="0" width="0" height="0" fill="black">
<rect fill="white" width="0" height="0"/>
</mask>
<path d="M0.292893 7.47356C-0.0976311 7.86408 -0.0976311 8.49725 0.292893 8.88777L6.65685 15.2517C7.04738 15.6423 7.68054 15.6423 8.07107 15.2517C8.46159 14.8612 8.46159 14.228 8.07107 13.8375L2.41421 8.18066L8.07107 2.52381C8.46159 2.13329 8.46159 1.50012 8.07107 1.1096C7.68054 0.719072 7.04738 0.719072 6.65685 1.1096L0.292893 7.47356ZM1418.71 8.88777C1419.1 8.49725 1419.1 7.86408 1418.71 7.47356L1412.34 1.1096C1411.95 0.719072 1411.32 0.719072 1410.93 1.1096C1410.54 1.50012 1410.54 2.13329 1410.93 2.52381L1416.59 8.18066L1410.93 13.8375C1410.54 14.228 1410.54 14.8612 1410.93 15.2517C1411.32 15.6423 1411.95 15.6423 1412.34 15.2517L1418.71 8.88777ZM1 9.18066H1418V7.18066H1V9.18066Z" fill="#9F8C6C" mask="url(#)"/>
</svg>
