<svg xmlns="http://www.w3.org/2000/svg" width="1872" height="626" viewBox="0 0 1872 626" fill="none">
    <rect x="1317.19" y="113.31" width="1.71991" height="1.71991" fill="white" />
    <rect x="1318.91" y="115.03" width="1.71991" height="1.71991" fill="white" />
    <rect x="1315.47" y="115.03" width="1.71991" height="1.71991" fill="white" />
    <rect width="1.71991" height="1.71991" transform="matrix(1 0 0 -1 1317.19 103.44)" fill="white" />
    <rect width="1.71991" height="1.71991" transform="matrix(1 0 0 -1 1318.91 101.72)" fill="white" />
    <rect width="1.71991" height="1.71991" transform="matrix(1 0 0 -1 1315.47 101.72)" fill="white" />
    <rect width="1.71991" height="1.71991"
        transform="matrix(-4.37114e-08 -1 -1 4.37114e-08 1313.36 109.197)"
        fill="white" />
    <rect width="1.71991" height="1.71991"
        transform="matrix(-4.37114e-08 -1 -1 4.37114e-08 1311.64 107.477)"
        fill="white" />
    <rect width="1.71991" height="1.71991"
        transform="matrix(-4.37114e-08 -1 -1 4.37114e-08 1311.64 110.917)"
        fill="white" />
    <rect x="1323.17" y="109.197" width="1.71991" height="1.71991"
        transform="rotate(-90 1323.17 109.197)"
        fill="white" />
    <rect x="1324.89" y="107.477" width="1.71991" height="1.71991"
        transform="rotate(-90 1324.89 107.477)"
        fill="white" />
    <rect x="1324.89" y="110.917" width="1.71991" height="1.71991"
        transform="rotate(-90 1324.89 110.917)"
        fill="white" />
    <rect x="1321.45" y="111.212" width="1.71991" height="1.71991" fill="white" />
    <rect x="1323.17" y="112.932" width="1.71991" height="1.71991" fill="white" />
    <rect width="1.71991" height="1.71991" transform="matrix(1 0 0 -1 1321.45 105.16)" fill="white" />
    <rect width="1.71991" height="1.71991" transform="matrix(1 0 0 -1 1323.17 103.44)" fill="white" />
    <rect width="1.71991" height="1.71991" transform="matrix(-1 0 0 1 1315.08 111.212)" fill="white" />
    <rect width="1.71991" height="1.71991" transform="matrix(-1 0 0 1 1313.36 112.932)" fill="white" />
    <rect x="1315.08" y="105.16" width="1.71991" height="1.71991"
        transform="rotate(180 1315.08 105.16)"
        fill="white" />
    <rect x="1313.36" y="103.44" width="1.71991" height="1.71991"
        transform="rotate(180 1313.36 103.44)"
        fill="white" />
    <rect x="1498.22" y="211.31" width="1.71991" height="1.71991" fill="white" />
    <rect x="1499.94" y="213.03" width="1.71991" height="1.71991" fill="white" />
    <rect x="1496.5" y="213.03" width="1.71991" height="1.71991" fill="white" />
    <rect width="1.71991" height="1.71991" transform="matrix(1 0 0 -1 1498.22 201.44)" fill="white" />
    <rect width="1.71991" height="1.71991" transform="matrix(1 0 0 -1 1499.94 199.72)" fill="white" />
    <rect width="1.71991" height="1.71991" transform="matrix(1 0 0 -1 1496.5 199.72)" fill="white" />
    <rect width="1.71991" height="1.71991"
        transform="matrix(-4.37114e-08 -1 -1 4.37114e-08 1494.38 207.197)"
        fill="white" />
    <rect width="1.71991" height="1.71991"
        transform="matrix(-4.37114e-08 -1 -1 4.37114e-08 1492.67 205.477)"
        fill="white" />
    <rect width="1.71991" height="1.71991"
        transform="matrix(-4.37114e-08 -1 -1 4.37114e-08 1492.67 208.917)"
        fill="white" />
    <rect x="1504.19" y="207.197" width="1.71991" height="1.71991"
        transform="rotate(-90 1504.19 207.197)"
        fill="white" />
    <rect x="1505.91" y="205.477" width="1.71991" height="1.71991"
        transform="rotate(-90 1505.91 205.477)"
        fill="white" />
    <rect x="1505.91" y="208.917" width="1.71991" height="1.71991"
        transform="rotate(-90 1505.91 208.917)"
        fill="white" />
    <rect x="1502.47" y="209.212" width="1.71991" height="1.71991" fill="white" />
    <rect x="1504.19" y="210.932" width="1.71991" height="1.71991" fill="white" />
    <rect width="1.71991" height="1.71991" transform="matrix(1 0 0 -1 1502.47 203.16)" fill="white" />
    <rect width="1.71991" height="1.71991" transform="matrix(1 0 0 -1 1504.19 201.44)" fill="white" />
    <rect width="1.71991" height="1.71991" transform="matrix(-1 0 0 1 1496.11 209.212)" fill="white" />
    <rect width="1.71991" height="1.71991" transform="matrix(-1 0 0 1 1494.39 210.932)" fill="white" />
    <rect x="1496.11" y="203.16" width="1.71991" height="1.71991"
        transform="rotate(180 1496.11 203.16)"
        fill="white" />
    <rect x="1494.39" y="201.44" width="1.71991" height="1.71991"
        transform="rotate(180 1494.39 201.44)"
        fill="white" />
    <rect x="1700.24" y="385.31" width="1.71991" height="1.71991" fill="white" />
    <rect x="1701.96" y="387.03" width="1.71991" height="1.71991" fill="white" />
    <rect x="1698.52" y="387.03" width="1.71991" height="1.71991" fill="white" />
    <rect width="1.71991" height="1.71991" transform="matrix(1 0 0 -1 1700.24 375.44)" fill="white" />
    <rect width="1.71991" height="1.71991" transform="matrix(1 0 0 -1 1701.96 373.72)" fill="white" />
    <rect width="1.71991" height="1.71991" transform="matrix(1 0 0 -1 1698.52 373.72)" fill="white" />
    <rect width="1.71991" height="1.71991"
        transform="matrix(-4.37114e-08 -1 -1 4.37114e-08 1696.41 381.197)"
        fill="white" />
    <rect width="1.71991" height="1.71991"
        transform="matrix(-4.37114e-08 -1 -1 4.37114e-08 1694.69 379.477)"
        fill="white" />
    <rect width="1.71991" height="1.71991"
        transform="matrix(-4.37114e-08 -1 -1 4.37114e-08 1694.69 382.917)"
        fill="white" />
    <rect x="1706.22" y="381.197" width="1.71991" height="1.71991"
        transform="rotate(-90 1706.22 381.197)"
        fill="white" />
    <rect x="1707.94" y="379.477" width="1.71991" height="1.71991"
        transform="rotate(-90 1707.94 379.477)"
        fill="white" />
    <rect x="1707.94" y="382.917" width="1.71991" height="1.71991"
        transform="rotate(-90 1707.94 382.917)"
        fill="white" />
    <rect x="1704.5" y="383.212" width="1.71991" height="1.71991" fill="white" />
    <rect x="1706.22" y="384.932" width="1.71991" height="1.71991" fill="white" />
    <rect width="1.71991" height="1.71991" transform="matrix(1 0 0 -1 1704.5 377.16)" fill="white" />
    <rect width="1.71991" height="1.71991" transform="matrix(1 0 0 -1 1706.22 375.44)" fill="white" />
    <rect width="1.71991" height="1.71991" transform="matrix(-1 0 0 1 1698.13 383.212)" fill="white" />
    <rect width="1.71991" height="1.71991" transform="matrix(-1 0 0 1 1696.41 384.932)" fill="white" />
    <rect x="1698.13" y="377.16" width="1.71991" height="1.71991"
        transform="rotate(180 1698.13 377.16)"
        fill="white" />
    <rect x="1696.41" y="375.44" width="1.71991" height="1.71991"
        transform="rotate(180 1696.41 375.44)"
        fill="white" />
    <rect x="1862.27" y="622.31" width="1.71991" height="1.71991" fill="white" />
    <rect x="1863.99" y="624.03" width="1.71991" height="1.71991" fill="white" />
    <rect x="1860.55" y="624.03" width="1.71991" height="1.71991" fill="white" />
    <rect width="1.71991" height="1.71991" transform="matrix(1 0 0 -1 1862.27 612.44)" fill="white" />
    <rect width="1.71991" height="1.71991" transform="matrix(1 0 0 -1 1863.99 610.72)" fill="white" />
    <rect width="1.71991" height="1.71991" transform="matrix(1 0 0 -1 1860.55 610.72)" fill="white" />
    <rect width="1.71991" height="1.71991"
        transform="matrix(-4.37114e-08 -1 -1 4.37114e-08 1858.44 618.197)"
        fill="white" />
    <rect width="1.71991" height="1.71991"
        transform="matrix(-4.37114e-08 -1 -1 4.37114e-08 1856.72 616.477)"
        fill="white" />
    <rect width="1.71991" height="1.71991"
        transform="matrix(-4.37114e-08 -1 -1 4.37114e-08 1856.72 619.917)"
        fill="white" />
    <rect x="1868.25" y="618.197" width="1.71991" height="1.71991"
        transform="rotate(-90 1868.25 618.197)"
        fill="white" />
    <rect x="1869.97" y="616.477" width="1.71991" height="1.71991"
        transform="rotate(-90 1869.97 616.477)"
        fill="white" />
    <rect x="1869.97" y="619.917" width="1.71991" height="1.71991"
        transform="rotate(-90 1869.97 619.917)"
        fill="white" />
    <rect x="1866.53" y="620.212" width="1.71991" height="1.71991" fill="white" />
    <rect x="1868.25" y="621.932" width="1.71991" height="1.71991" fill="white" />
    <rect width="1.71991" height="1.71991" transform="matrix(1 0 0 -1 1866.53 614.16)" fill="white" />
    <rect width="1.71991" height="1.71991" transform="matrix(1 0 0 -1 1868.25 612.44)" fill="white" />
    <rect width="1.71991" height="1.71991" transform="matrix(-1 0 0 1 1860.16 620.212)" fill="white" />
    <rect width="1.71991" height="1.71991" transform="matrix(-1 0 0 1 1858.44 621.932)" fill="white" />
    <rect x="1860.16" y="614.16" width="1.71991" height="1.71991"
        transform="rotate(180 1860.16 614.16)"
        fill="white" />
    <rect x="1858.44" y="612.44" width="1.71991" height="1.71991"
        transform="rotate(180 1858.44 612.44)"
        fill="white" />
    <rect width="1.71991" height="1.71991" transform="matrix(-1 0 0 1 554.5 113.31)" fill="white" />
    <rect width="1.71991" height="1.71991" transform="matrix(-1 0 0 1 552.78 115.03)" fill="white" />
    <rect width="1.71991" height="1.71991" transform="matrix(-1 0 0 1 556.22 115.03)" fill="white" />
    <rect x="554.5" y="103.44" width="1.71991" height="1.71991" transform="rotate(180 554.5 103.44)"
        fill="white" />
    <rect x="552.78" y="101.72" width="1.71991" height="1.71991"
        transform="rotate(180 552.78 101.72)"
        fill="white" />
    <rect x="556.22" y="101.72" width="1.71991" height="1.71991"
        transform="rotate(180 556.22 101.72)"
        fill="white" />
    <rect x="558.332" y="109.197" width="1.71991" height="1.71991"
        transform="rotate(-90 558.332 109.197)"
        fill="white" />
    <rect x="560.051" y="107.477" width="1.71991" height="1.71991"
        transform="rotate(-90 560.051 107.477)"
        fill="white" />
    <rect x="560.051" y="110.917" width="1.71991" height="1.71991"
        transform="rotate(-90 560.051 110.917)"
        fill="white" />
    <rect width="1.71991" height="1.71991"
        transform="matrix(-4.37114e-08 -1 -1 4.37114e-08 548.522 109.197)"
        fill="white" />
    <rect width="1.71991" height="1.71991"
        transform="matrix(-4.37114e-08 -1 -1 4.37114e-08 546.802 107.477)"
        fill="white" />
    <rect width="1.71991" height="1.71991"
        transform="matrix(-4.37114e-08 -1 -1 4.37114e-08 546.802 110.917)"
        fill="white" />
    <rect width="1.71991" height="1.71991" transform="matrix(-1 0 0 1 550.242 111.212)" fill="white" />
    <rect width="1.71991" height="1.71991" transform="matrix(-1 0 0 1 548.522 112.932)" fill="white" />
    <rect x="550.242" y="105.16" width="1.71991" height="1.71991"
        transform="rotate(180 550.242 105.16)"
        fill="white" />
    <rect x="548.522" y="103.44" width="1.71991" height="1.71991"
        transform="rotate(180 548.522 103.44)"
        fill="white" />
    <rect x="556.612" y="111.212" width="1.71991" height="1.71991" fill="white" />
    <rect x="558.332" y="112.932" width="1.71991" height="1.71991" fill="white" />
    <rect width="1.71991" height="1.71991" transform="matrix(1 0 0 -1 556.612 105.16)" fill="white" />
    <rect width="1.71991" height="1.71991" transform="matrix(1 0 0 -1 558.332 103.44)" fill="white" />
    <rect width="1.71991" height="1.71991" transform="matrix(-1 0 0 1 373.472 211.31)" fill="white" />
    <rect width="1.71991" height="1.71991" transform="matrix(-1 0 0 1 371.752 213.03)" fill="white" />
    <rect width="1.71991" height="1.71991" transform="matrix(-1 0 0 1 375.192 213.03)" fill="white" />
    <rect x="373.472" y="201.44" width="1.71991" height="1.71991"
        transform="rotate(180 373.472 201.44)"
        fill="white" />
    <rect x="371.752" y="199.72" width="1.71991" height="1.71991"
        transform="rotate(180 371.752 199.72)"
        fill="white" />
    <rect x="375.192" y="199.72" width="1.71991" height="1.71991"
        transform="rotate(180 375.192 199.72)"
        fill="white" />
    <rect x="377.304" y="207.197" width="1.71991" height="1.71991"
        transform="rotate(-90 377.304 207.197)"
        fill="white" />
    <rect x="379.023" y="205.477" width="1.71991" height="1.71991"
        transform="rotate(-90 379.023 205.477)"
        fill="white" />
    <rect x="379.023" y="208.917" width="1.71991" height="1.71991"
        transform="rotate(-90 379.023 208.917)"
        fill="white" />
    <rect width="1.71991" height="1.71991"
        transform="matrix(-4.37114e-08 -1 -1 4.37114e-08 367.494 207.197)"
        fill="white" />
    <rect width="1.71991" height="1.71991"
        transform="matrix(-4.37114e-08 -1 -1 4.37114e-08 365.774 205.477)"
        fill="white" />
    <rect width="1.71991" height="1.71991"
        transform="matrix(-4.37114e-08 -1 -1 4.37114e-08 365.774 208.917)"
        fill="white" />
    <rect width="1.71991" height="1.71991" transform="matrix(-1 0 0 1 369.214 209.212)" fill="white" />
    <rect width="1.71991" height="1.71991" transform="matrix(-1 0 0 1 367.495 210.932)" fill="white" />
    <rect x="369.214" y="203.16" width="1.71991" height="1.71991"
        transform="rotate(180 369.214 203.16)"
        fill="white" />
    <rect x="367.495" y="201.44" width="1.71991" height="1.71991"
        transform="rotate(180 367.495 201.44)"
        fill="white" />
    <rect x="375.584" y="209.212" width="1.71991" height="1.71991" fill="white" />
    <rect x="377.304" y="210.932" width="1.71991" height="1.71991" fill="white" />
    <rect width="1.71991" height="1.71991" transform="matrix(1 0 0 -1 375.584 203.16)" fill="white" />
    <rect width="1.71991" height="1.71991" transform="matrix(1 0 0 -1 377.304 201.44)" fill="white" />
    <rect width="1.71991" height="1.71991" transform="matrix(-1 0 0 1 171.445 385.31)" fill="white" />
    <rect width="1.71991" height="1.71991" transform="matrix(-1 0 0 1 169.725 387.03)" fill="white" />
    <rect width="1.71991" height="1.71991" transform="matrix(-1 0 0 1 173.165 387.03)" fill="white" />
    <rect x="171.445" y="375.44" width="1.71991" height="1.71991"
        transform="rotate(180 171.445 375.44)"
        fill="white" />
    <rect x="169.725" y="373.72" width="1.71991" height="1.71991"
        transform="rotate(180 169.725 373.72)"
        fill="white" />
    <rect x="173.165" y="373.72" width="1.71991" height="1.71991"
        transform="rotate(180 173.165 373.72)"
        fill="white" />
    <rect x="175.276" y="381.197" width="1.71991" height="1.71991"
        transform="rotate(-90 175.276 381.197)"
        fill="white" />
    <rect x="176.996" y="379.477" width="1.71991" height="1.71991"
        transform="rotate(-90 176.996 379.477)"
        fill="white" />
    <rect x="176.996" y="382.917" width="1.71991" height="1.71991"
        transform="rotate(-90 176.996 382.917)"
        fill="white" />
    <rect width="1.71991" height="1.71991"
        transform="matrix(-4.37114e-08 -1 -1 4.37114e-08 165.467 381.197)"
        fill="white" />
    <rect width="1.71991" height="1.71991"
        transform="matrix(-4.37114e-08 -1 -1 4.37114e-08 163.747 379.477)"
        fill="white" />
    <rect width="1.71991" height="1.71991"
        transform="matrix(-4.37114e-08 -1 -1 4.37114e-08 163.747 382.917)"
        fill="white" />
    <rect width="1.71991" height="1.71991" transform="matrix(-1 0 0 1 167.187 383.212)" fill="white" />
    <rect width="1.71991" height="1.71991" transform="matrix(-1 0 0 1 165.467 384.932)" fill="white" />
    <rect x="167.187" y="377.16" width="1.71991" height="1.71991"
        transform="rotate(180 167.187 377.16)"
        fill="white" />
    <rect x="165.467" y="375.44" width="1.71991" height="1.71991"
        transform="rotate(180 165.467 375.44)"
        fill="white" />
    <rect x="173.557" y="383.212" width="1.71991" height="1.71991" fill="white" />
    <rect x="175.276" y="384.932" width="1.71991" height="1.71991" fill="white" />
    <rect width="1.71991" height="1.71991" transform="matrix(1 0 0 -1 173.557 377.16)" fill="white" />
    <rect width="1.71991" height="1.71991" transform="matrix(1 0 0 -1 175.276 375.44)" fill="white" />
    <rect width="1.71991" height="1.71991" transform="matrix(-1 0 0 1 9.41748 622.31)" fill="white" />
    <rect width="1.71991" height="1.71991" transform="matrix(-1 0 0 1 7.69775 624.03)" fill="white" />
    <rect width="1.71991" height="1.71991" transform="matrix(-1 0 0 1 11.1377 624.03)" fill="white" />
    <rect x="9.41748" y="612.44" width="1.71991" height="1.71991"
        transform="rotate(180 9.41748 612.44)"
        fill="white" />
    <rect x="7.69775" y="610.72" width="1.71991" height="1.71991"
        transform="rotate(180 7.69775 610.72)"
        fill="white" />
    <rect x="11.1377" y="610.72" width="1.71991" height="1.71991"
        transform="rotate(180 11.1377 610.72)"
        fill="white" />
    <rect x="13.249" y="618.197" width="1.71991" height="1.71991"
        transform="rotate(-90 13.249 618.197)"
        fill="white" />
    <rect x="14.9688" y="616.477" width="1.71991" height="1.71991"
        transform="rotate(-90 14.9688 616.477)"
        fill="white" />
    <rect x="14.9688" y="619.917" width="1.71991" height="1.71991"
        transform="rotate(-90 14.9688 619.917)"
        fill="white" />
    <rect width="1.71991" height="1.71991"
        transform="matrix(-4.37114e-08 -1 -1 4.37114e-08 3.43945 618.197)"
        fill="white" />
    <rect width="1.71991" height="1.71991"
        transform="matrix(-4.37114e-08 -1 -1 4.37114e-08 1.71973 616.477)"
        fill="white" />
    <rect width="1.71991" height="1.71991"
        transform="matrix(-4.37114e-08 -1 -1 4.37114e-08 1.71973 619.917)"
        fill="white" />
    <rect width="1.71991" height="1.71991" transform="matrix(-1 0 0 1 5.15967 620.212)" fill="white" />
    <rect width="1.71991" height="1.71991" transform="matrix(-1 0 0 1 3.43994 621.932)" fill="white" />
    <rect x="5.15967" y="614.16" width="1.71991" height="1.71991"
        transform="rotate(180 5.15967 614.16)"
        fill="white" />
    <rect x="3.43994" y="612.44" width="1.71991" height="1.71991"
        transform="rotate(180 3.43994 612.44)"
        fill="white" />
    <rect x="11.5293" y="620.212" width="1.71991" height="1.71991" fill="white" />
    <rect x="13.249" y="621.932" width="1.71991" height="1.71991" fill="white" />
    <rect width="1.71991" height="1.71991" transform="matrix(1 0 0 -1 11.5293 614.16)" fill="white" />
    <rect width="1.71991" height="1.71991" transform="matrix(1 0 0 -1 13.249 612.44)" fill="white" />
</svg>