<svg xmlns="http://www.w3.org/2000/svg" width="24" height="24" viewBox="0 0 24 24" fill="none">
  <g clip-path="url(#clip0_1126_172)">
    <path d="M23.0328 7.70567C22.9789 6.48359 22.7813 5.64342 22.4982 4.9154C22.2061 4.14263 21.7568 3.45077 21.1682 2.87562C20.593 2.29152 19.8966 1.83765 19.1328 1.55017C18.4006 1.26707 17.5648 1.06944 16.3427 1.01556C15.1115 0.957118 14.7206 0.943604 11.598 0.943604C8.47527 0.943604 8.08441 0.957118 6.85777 1.011C5.63569 1.06488 4.79552 1.26268 4.06768 1.5456C3.29473 1.83765 2.60287 2.28696 2.02772 2.87562C1.44362 3.45077 0.989928 4.14719 0.702267 4.91101C0.419169 5.64342 0.221544 6.47902 0.167662 7.7011C0.109217 8.93231 0.0957031 9.32317 0.0957031 12.4458C0.0957031 15.5685 0.109217 15.9594 0.163099 17.186C0.216981 18.4081 0.414781 19.2483 0.697879 19.9763C0.989928 20.7491 1.44362 21.4409 2.02772 22.0161C2.60287 22.6002 3.29929 23.054 4.06312 23.3415C4.79552 23.6246 5.63112 23.8223 6.85338 23.8761C8.07985 23.9302 8.47088 23.9435 11.5936 23.9435C14.7162 23.9435 15.1071 23.9302 16.3337 23.8761C17.5558 23.8223 18.396 23.6246 19.1238 23.3415C20.6696 22.7439 21.8916 21.5218 22.4892 19.9763C22.7722 19.2439 22.97 18.4081 23.0239 17.186C23.0777 15.9594 23.0912 15.5685 23.0912 12.4458C23.0912 9.32317 23.0867 8.93231 23.0328 7.70567ZM20.9616 17.0962C20.9121 18.2194 20.7234 18.826 20.5662 19.2304C20.1797 20.2324 19.3845 21.0276 18.3825 21.4141C17.9781 21.5713 17.3672 21.76 16.2483 21.8093C15.0351 21.8634 14.6713 21.8767 11.6025 21.8767C8.53372 21.8767 8.16532 21.8634 6.95658 21.8093C5.83331 21.76 5.22675 21.5713 4.82237 21.4141C4.32375 21.2298 3.86988 20.9377 3.50148 20.5558C3.11957 20.1829 2.82752 19.7336 2.64324 19.2349C2.48598 18.8306 2.29731 18.2194 2.24799 17.1007C2.19393 15.8876 2.18059 15.5236 2.18059 12.4548C2.18059 9.386 2.19393 9.01761 2.24799 7.80904C2.29731 6.68578 2.48598 6.07921 2.64324 5.67484C2.82752 5.17604 3.11957 4.72234 3.50605 4.35377C3.87883 3.97186 4.32814 3.67981 4.82694 3.4957C5.23131 3.33844 5.84244 3.14977 6.96114 3.10027C8.17427 3.04639 8.53828 3.03288 11.6069 3.03288C14.6803 3.03288 15.0441 3.04639 16.2528 3.10027C17.3761 3.14977 17.9827 3.33844 18.387 3.4957C18.8857 3.67981 19.3395 3.97186 19.7079 4.35377C20.0898 4.72673 20.3819 5.17604 20.5662 5.67484C20.7234 6.07921 20.9121 6.69016 20.9616 7.80904C21.0155 9.02217 21.029 9.386 21.029 12.4548C21.029 15.5236 21.0155 15.883 20.9616 17.0962Z" fill="white"/>
    <path d="M11.5973 6.53735C8.33549 6.53735 5.68896 9.1837 5.68896 12.4457C5.68896 15.7078 8.33549 18.3541 11.5973 18.3541C14.8594 18.3541 17.5057 15.7078 17.5057 12.4457C17.5057 9.1837 14.8594 6.53735 11.5973 6.53735ZM11.5973 16.2784C9.48122 16.2784 7.76473 14.562 7.76473 12.4457C7.76473 10.3294 9.48122 8.61311 11.5973 8.61311C13.7136 8.61311 15.43 10.3294 15.43 12.4457C15.43 14.562 13.7136 16.2784 11.5973 16.2784Z" fill="white"/>
    <path d="M19.1192 6.3039C19.1192 7.06561 18.5016 7.68323 17.7397 7.68323C16.978 7.68323 16.3604 7.06561 16.3604 6.3039C16.3604 5.54201 16.978 4.92456 17.7397 4.92456C18.5016 4.92456 19.1192 5.54201 19.1192 6.3039Z" fill="white"/>
  </g>
  <defs>
    <clipPath id="clip0_1126_172">
      <rect width="23" height="23" fill="white" transform="translate(0.0551758 0.943604)"/>
    </clipPath>
  </defs>
</svg>