<svg width="18" height="18" viewBox="0 0 18 18" fill="none" xmlns="http://www.w3.org/2000/svg">
<rect x="7.68262" y="13.5923" width="1.71991" height="1.71991" fill="#E1C28C"/>
<rect x="9.40234" y="15.312" width="1.71991" height="1.71991" fill="#E1C28C"/>
<rect x="5.9624" y="15.312" width="1.71991" height="1.71991" fill="#E1C28C"/>
<rect width="1.71991" height="1.71991" transform="matrix(1 0 0 -1 7.68262 3.72217)" fill="#E1C28C"/>
<rect width="1.71991" height="1.71991" transform="matrix(1 0 0 -1 9.40234 2.00244)" fill="#E1C28C"/>
<rect width="1.71991" height="1.71991" transform="matrix(1 0 0 -1 5.9624 2.00244)" fill="#E1C28C"/>
<rect width="1.71991" height="1.71991" transform="matrix(-4.37114e-08 -1 -1 4.37114e-08 3.85107 9.47949)" fill="#E1C28C"/>
<rect width="1.71991" height="1.71991" transform="matrix(-4.37114e-08 -1 -1 4.37114e-08 2.13135 7.75928)" fill="#E1C28C"/>
<rect width="1.71991" height="1.71991" transform="matrix(-4.37114e-08 -1 -1 4.37114e-08 2.13135 11.1992)" fill="#E1C28C"/>
<rect x="13.6606" y="9.47949" width="1.71991" height="1.71991" transform="rotate(-90 13.6606 9.47949)" fill="#E1C28C"/>
<rect x="15.3804" y="7.75928" width="1.71991" height="1.71991" transform="rotate(-90 15.3804 7.75928)" fill="#E1C28C"/>
<rect x="15.3804" y="11.1992" width="1.71991" height="1.71991" transform="rotate(-90 15.3804 11.1992)" fill="#E1C28C"/>
<rect x="11.9404" y="11.4941" width="1.71991" height="1.71991" fill="#E1C28C"/>
<rect x="13.6602" y="13.2139" width="1.71991" height="1.71991" fill="#E1C28C"/>
<rect width="1.71991" height="1.71991" transform="matrix(1 0 0 -1 11.9404 5.44189)" fill="#E1C28C"/>
<rect width="1.71991" height="1.71991" transform="matrix(1 0 0 -1 13.6602 3.72217)" fill="#E1C28C"/>
<rect width="1.71991" height="1.71991" transform="matrix(-1 0 0 1 5.5708 11.4941)" fill="#E1C28C"/>
<rect width="1.71991" height="1.71991" transform="matrix(-1 0 0 1 3.85107 13.2139)" fill="#E1C28C"/>
<rect x="5.5708" y="5.44189" width="1.71991" height="1.71991" transform="rotate(180 5.5708 5.44189)" fill="#E1C28C"/>
<rect x="3.85107" y="3.72217" width="1.71991" height="1.71991" transform="rotate(180 3.85107 3.72217)" fill="#E1C28C"/>
</svg>
