<svg xmlns="http://www.w3.org/2000/svg" width="121" height="143" viewBox="0 0 121 143" fill="none">
  <path d="M0 2.91455C0 -2.7423 0 -5.57073 1.75736 -7.32809C3.51472 -9.08545 6.34315 -9.08545 12 -9.08545H108.845C114.501 -9.08545 117.33 -9.08545 119.087 -7.32809C120.845 -5.57073 120.845 -2.7423 120.845 2.91455V111.325C120.845 112.944 120.845 113.754 120.635 114.526C120.425 115.298 120.016 115.996 119.197 117.393L116.719 121.621L112.595 127.169C112.084 127.856 111.829 128.2 111.528 128.503C111.228 128.806 110.886 129.064 110.203 129.581L101.349 136.276C100.257 137.102 99.7111 137.514 99.0921 137.793C98.4731 138.071 97.802 138.205 96.4596 138.472L85.8841 140.583C84.8084 140.798 84.2705 140.905 83.7251 140.914C83.1797 140.922 82.6387 140.832 81.5568 140.651L65.8387 138.023L49.5525 132.905C48.9809 132.725 48.6951 132.636 48.4023 132.575C48.1095 132.514 47.8116 132.482 47.2158 132.419L10.5588 128.546C6.28938 128.546 4.15467 128.546 2.62828 127.509C2.00223 127.084 1.46231 126.544 1.03699 125.918C0 124.391 0 122.256 0 117.987V2.91455Z" fill="url(#paint0_radial_141_548)"/>
  <path d="M52.5814 129.831C23.8001 112.735 8.46953 122.462 4.36963 129.329C9.89427 129.38 23.0037 130.354 31.5028 134.905C42.1266 140.594 65.496 143.515 78.5645 142.592C91.6329 141.67 110.236 140.901 120.845 115.841C98.0902 155.507 61.0374 135.213 52.5814 129.831Z" fill="url(#paint1_linear_141_548)"/>
  <defs>
    <radialGradient id="paint0_radial_141_548" cx="0" cy="0" r="1" gradientUnits="userSpaceOnUse" gradientTransform="translate(60.4223 65.9641) rotate(90) scale(75.0496 60.4223)">
      <stop stop-color="white"/>
      <stop offset="1" stop-color="#E7DCCF"/>
    </radialGradient>
    <linearGradient id="paint1_linear_141_548" x1="5.99573" y1="129.301" x2="126.192" y2="142.76" gradientUnits="userSpaceOnUse">
      <stop stop-color="#6C5D40"/>
      <stop offset="0.176577" stop-color="#977A4D"/>
      <stop offset="0.324734" stop-color="#AA8F67"/>
      <stop offset="0.533239" stop-color="#E3DAC0"/>
      <stop offset="0.853716" stop-color="#D1B175"/>
    </linearGradient>
  </defs>
</svg>