<svg xmlns="http://www.w3.org/2000/svg" width="16" height="30" viewBox="0 0 16 30" fill="none">
    <path d="M11.1332 2.55256L11.7572 0.680664L15.501 1.92859L14.877 3.80051L11.1332 2.55256ZM14.877 26.2305L15.501 28.1025L11.7572 29.3503L11.1332 27.4784L14.877 26.2305ZM14.877 3.80051C12.7477 10.1883 9.21305 13.5466 6.05733 15.2679C4.50223 16.1161 3.07942 16.5453 2.0284 16.7628C1.50235 16.8716 1.06672 16.928 0.750185 16.9572C0.59178 16.9719 0.462735 16.9797 0.366603 16.9839C0.318497 16.986 0.2786 16.9872 0.247286 16.9879C0.231638 16.9882 0.218143 16.9884 0.206837 16.9886C0.201193 16.9886 0.196083 16.9887 0.191545 16.9887C0.189275 16.9887 0.187124 16.9887 0.185131 16.9887C0.184145 16.9887 0.182744 16.9887 0.18225 16.9887C0.180908 16.9887 0.179586 16.9887 0.179567 15.0156C0.179547 13.0424 0.178305 13.0424 0.177081 13.0424C0.176726 13.0424 0.175522 13.0424 0.174811 13.0424C0.173351 13.0424 0.172029 13.0424 0.170826 13.0424C0.168439 13.0424 0.166563 13.0425 0.165202 13.0425C0.162459 13.0425 0.16175 13.0425 0.163032 13.0425C0.165558 13.0424 0.175995 13.0422 0.193912 13.0414C0.229744 13.0398 0.295332 13.0361 0.38742 13.0276C0.57189 13.0106 0.860762 12.9745 1.22882 12.8983C1.96597 12.7458 3.00961 12.4351 4.1676 11.8034C6.43807 10.565 9.31615 8.00371 11.1332 2.55256L14.877 3.80051ZM0.179567 15.0156C0.179547 13.0424 0.180869 13.0424 0.182231 13.0424C0.182724 13.0424 0.184125 13.0424 0.185112 13.0424C0.187104 13.0424 0.189236 13.0424 0.191504 13.0424C0.196063 13.0425 0.201154 13.0425 0.206817 13.0426C0.218103 13.0427 0.231619 13.0429 0.247266 13.0432C0.27856 13.0439 0.318478 13.0451 0.366563 13.0472C0.462715 13.0514 0.59176 13.0592 0.750165 13.0739C1.0667 13.1031 1.50233 13.1595 2.02836 13.2683C3.0794 13.4857 4.50221 13.9149 6.05731 14.7632C9.21305 16.4845 12.7477 19.8426 14.877 26.2305L11.1332 27.4784C9.31616 22.0273 6.43808 19.466 4.16762 18.2276C3.00963 17.596 1.96599 17.2853 1.22885 17.1328C0.8608 17.0566 0.57191 17.0205 0.387459 17.0035C0.295352 16.995 0.229784 16.9913 0.193932 16.9897C0.176015 16.9889 0.165596 16.9887 0.163051 16.9886C0.161788 16.9886 0.162479 16.9886 0.165222 16.9887C0.166604 16.9887 0.168478 16.9887 0.170866 16.9887C0.17205 16.9887 0.17337 16.9887 0.17483 16.9887C0.175561 16.9887 0.176744 16.9887 0.1771 16.9887C0.178324 16.9887 0.179586 16.9887 0.179567 15.0156Z" fill="white"/>
  </svg>