<svg xmlns="http://www.w3.org/2000/svg" width="16" height="30" viewBox="0 0 16 30" fill="none">
    <path
        d="M4.86874 2.55256L4.24479 0.680664L0.500977 1.92859L1.12494 3.80051L4.86874 2.55256ZM1.12494 26.2305L0.500977 28.1025L4.24479 29.3503L4.86874 27.4784L1.12494 26.2305ZM1.12494 3.80051C3.25421 10.1883 6.78891 13.5466 9.94462 15.2679C11.4997 16.1161 12.9225 16.5453 13.9736 16.7628C14.4996 16.8716 14.9352 16.928 15.2518 16.9572C15.4102 16.9719 15.5392 16.9797 15.6354 16.9839C15.6835 16.986 15.7234 16.9872 15.7547 16.9879C15.7703 16.9882 15.7838 16.9884 15.7951 16.9886C15.8008 16.9886 15.8059 16.9887 15.8104 16.9887C15.8127 16.9887 15.8148 16.9887 15.8168 16.9887C15.8178 16.9887 15.8192 16.9887 15.8197 16.9887C15.821 16.9887 15.8224 16.9887 15.8224 15.0156C15.8224 13.0424 15.8236 13.0424 15.8249 13.0424C15.8252 13.0424 15.8264 13.0424 15.8271 13.0424C15.8286 13.0424 15.8299 13.0424 15.8311 13.0424C15.8335 13.0424 15.8354 13.0425 15.8368 13.0425C15.8395 13.0425 15.8402 13.0425 15.8389 13.0425C15.8364 13.0424 15.826 13.0422 15.808 13.0414C15.7722 13.0398 15.7066 13.0361 15.6145 13.0276C15.4301 13.0106 15.1412 12.9745 14.7731 12.8983C14.036 12.7458 12.9923 12.4351 11.8344 11.8034C9.56388 10.565 6.68581 8.00371 4.86874 2.55256L1.12494 3.80051ZM15.8224 15.0156C15.8224 13.0424 15.8211 13.0424 15.8197 13.0424C15.8192 13.0424 15.8178 13.0424 15.8168 13.0424C15.8148 13.0424 15.8127 13.0424 15.8104 13.0424C15.8059 13.0425 15.8008 13.0425 15.7951 13.0426C15.7838 13.0427 15.7703 13.0429 15.7547 13.0432C15.7234 13.0439 15.6835 13.0451 15.6354 13.0472C15.5392 13.0514 15.4102 13.0592 15.2518 13.0739C14.9353 13.1031 14.4996 13.1595 13.9736 13.2683C12.9226 13.4857 11.4997 13.9149 9.94464 14.7632C6.78891 16.4845 3.25423 19.8426 1.12494 26.2305L4.86874 27.4784C6.68579 22.0273 9.56388 19.466 11.8343 18.2276C12.9923 17.596 14.036 17.2853 14.7731 17.1328C15.1412 17.0566 15.43 17.0205 15.6145 17.0035C15.7066 16.995 15.7722 16.9913 15.808 16.9897C15.8259 16.9889 15.8364 16.9887 15.8389 16.9886C15.8402 16.9886 15.8395 16.9886 15.8367 16.9887C15.8353 16.9887 15.8335 16.9887 15.8311 16.9887C15.8299 16.9887 15.8286 16.9887 15.8271 16.9887C15.8264 16.9887 15.8252 16.9887 15.8249 16.9887C15.8236 16.9887 15.8224 16.9887 15.8224 15.0156Z"
        fill="white" />
</svg>