<svg xmlns="http://www.w3.org/2000/svg" width="341" height="681" viewBox="0 0 341 681" fill="none">
    <g filter="url(#filter0_bi_192_473)">
      <path fill-rule="evenodd" clip-rule="evenodd" d="M205.441 0.818099C194.68 0.64814 183.673 7.04736 172.911 7.04736C162.129 7.04736 151.103 0.604425 140.322 0.751283C112.732 1.12709 89.2703 1.988 69.8918 3.01675C54.0926 3.85549 42.2875 4.48322 33.0371 6.36395C23.8051 8.24096 17.1573 11.3591 11.6586 17.1574C6.16285 22.9527 3.39982 29.9568 2.01401 39.6859C0.62588 49.4313 0.624925 61.8647 0.624925 78.4995V605.604C0.624925 621.552 0.625953 633.469 2.01968 642.871C3.4107 652.255 6.1841 659.092 11.7062 664.895C17.2317 670.702 23.6978 673.798 32.5391 675.628C41.4008 677.463 52.6149 678.021 67.6284 678.767C93.2094 680.036 127.019 681.007 170.609 681.007C214.2 681.007 248.009 680.036 273.59 678.767C288.604 678.021 299.818 677.463 308.68 675.628C317.521 673.798 323.987 670.702 329.513 664.895C335.035 659.092 337.808 652.255 339.199 642.871C340.593 633.469 340.594 621.552 340.594 605.604V78.4995C340.594 61.8647 340.593 49.4313 339.205 39.6859C337.819 29.9568 335.056 22.9527 329.56 17.1574C324.061 11.3591 317.414 8.24096 308.182 6.36395C298.931 4.48322 287.126 3.85549 271.327 3.01676C253.021 2.04495 231.072 1.22292 205.441 0.818099Z" fill="#CB9D54" fill-opacity="0.08"/>
      <path d="M172.911 7.54736C178.293 7.54736 183.721 5.9724 189.066 4.42161L189.316 4.3492C194.772 2.76666 200.141 1.23445 205.433 1.31804C231.058 1.72276 253.001 2.54458 271.3 3.51605C287.115 4.35558 298.876 4.98228 308.082 6.85393C317.247 8.71727 323.79 11.7991 329.197 17.5015C334.599 23.1971 337.333 30.0907 338.71 39.7564C340.092 49.4585 340.094 61.8502 340.094 78.4995V605.604C340.094 621.567 340.092 633.441 338.704 642.798C337.323 652.114 334.581 658.844 329.15 664.551C323.712 670.265 317.348 673.323 308.578 675.139C299.763 676.964 288.595 677.521 273.566 678.267C247.994 679.537 214.192 680.507 170.609 680.507C127.026 680.507 93.225 679.537 67.6532 678.267C52.6242 677.521 41.4555 676.964 32.6405 675.139C23.8711 673.323 17.5064 670.265 12.0684 664.551C6.63805 658.844 3.89528 652.114 2.51428 642.798C1.12722 633.441 1.12493 621.567 1.12493 605.604V78.4995C1.12493 61.8502 1.12705 49.4585 2.50901 39.7564C3.8858 30.0907 6.62019 23.1971 12.0214 17.5015C17.4291 11.7991 23.9719 8.71726 33.1368 6.85393C42.3425 4.98228 54.1042 4.35558 69.9183 3.51605C89.2903 2.48765 112.745 1.62696 140.329 1.25124C145.631 1.17901 151.01 2.72774 156.476 4.32419L156.696 4.3886C162.061 5.95571 167.509 7.54736 172.911 7.54736Z" stroke="url(#paint0_linear_192_473)"/>
      <path d="M172.911 7.54736C178.293 7.54736 183.721 5.9724 189.066 4.42161L189.316 4.3492C194.772 2.76666 200.141 1.23445 205.433 1.31804C231.058 1.72276 253.001 2.54458 271.3 3.51605C287.115 4.35558 298.876 4.98228 308.082 6.85393C317.247 8.71727 323.79 11.7991 329.197 17.5015C334.599 23.1971 337.333 30.0907 338.71 39.7564C340.092 49.4585 340.094 61.8502 340.094 78.4995V605.604C340.094 621.567 340.092 633.441 338.704 642.798C337.323 652.114 334.581 658.844 329.15 664.551C323.712 670.265 317.348 673.323 308.578 675.139C299.763 676.964 288.595 677.521 273.566 678.267C247.994 679.537 214.192 680.507 170.609 680.507C127.026 680.507 93.225 679.537 67.6532 678.267C52.6242 677.521 41.4555 676.964 32.6405 675.139C23.8711 673.323 17.5064 670.265 12.0684 664.551C6.63805 658.844 3.89528 652.114 2.51428 642.798C1.12722 633.441 1.12493 621.567 1.12493 605.604V78.4995C1.12493 61.8502 1.12705 49.4585 2.50901 39.7564C3.8858 30.0907 6.62019 23.1971 12.0214 17.5015C17.4291 11.7991 23.9719 8.71726 33.1368 6.85393C42.3425 4.98228 54.1042 4.35558 69.9183 3.51605C89.2903 2.48765 112.745 1.62696 140.329 1.25124C145.631 1.17901 151.01 2.72774 156.476 4.32419L156.696 4.3886C162.061 5.95571 167.509 7.54736 172.911 7.54736Z" stroke="url(#paint1_linear_192_473)" stroke-opacity="0.2"/>
    </g>
    <defs>
      <filter id="filter0_bi_192_473" x="-6.575" y="-6.45098" width="354.369" height="694.658" filterUnits="userSpaceOnUse" color-interpolation-filters="sRGB">
        <feFlood flood-opacity="0" result="BackgroundImageFix"/>
        <feGaussianBlur in="BackgroundImageFix" stdDeviation="3.6"/>
        <feComposite in2="SourceAlpha" operator="in" result="effect1_backgroundBlur_192_473"/>
        <feBlend mode="normal" in="SourceGraphic" in2="effect1_backgroundBlur_192_473" result="shape"/>
        <feColorMatrix in="SourceAlpha" type="matrix" values="0 0 0 0 0 0 0 0 0 0 0 0 0 0 0 0 0 0 127 0" result="hardAlpha"/>
        <feOffset/>
        <feGaussianBlur stdDeviation="17.6"/>
        <feComposite in2="hardAlpha" operator="arithmetic" k2="-1" k3="1"/>
        <feColorMatrix type="matrix" values="0 0 0 0 0.812672 0 0 0 0 0.671124 0 0 0 0 0.429967 0 0 0 0.153 0"/>
        <feBlend mode="normal" in2="shape" result="effect2_innerShadow_192_473"/>
      </filter>
      <linearGradient id="paint0_linear_192_473" x1="-35.0244" y1="-223.54" x2="362.989" y2="47.0785" gradientUnits="userSpaceOnUse">
        <stop stop-color="#D9D9D9"/>
        <stop offset="1" stop-color="#D9D9D9" stop-opacity="0"/>
      </linearGradient>
      <linearGradient id="paint1_linear_192_473" x1="341" y1="766.182" x2="93.821" y2="613.692" gradientUnits="userSpaceOnUse">
        <stop stop-color="white"/>
        <stop offset="1" stop-color="white" stop-opacity="0"/>
      </linearGradient>
    </defs>
  </svg>