<svg xmlns="http://www.w3.org/2000/svg" width="355" height="272" viewBox="0 0 355 272" fill="none">
  <path d="M0.918457 271.551V200.1C0.918457 178.4 4.75566 155.377 12.4301 131.03C20.3691 106.419 31.7484 82.7345 46.568 59.976C61.6521 36.9527 79.7796 16.9727 100.95 0.0361328L151.76 41.3192C135.088 65.1363 120.533 90.012 108.096 115.946C95.9224 141.616 89.8358 169.138 89.8358 198.512V271.551H0.918457ZM204.158 271.551V200.1C204.158 178.4 207.995 155.377 215.67 131.03C223.609 106.419 234.988 82.7345 249.808 59.976C264.892 36.9527 283.019 16.9727 304.19 0.0361328L355 41.3192C338.328 65.1363 323.773 90.012 311.335 115.946C299.162 141.616 293.075 169.138 293.075 198.512V271.551H204.158Z" fill="#2C2519"/>
</svg>