<svg xmlns="http://www.w3.org/2000/svg" width="58" height="58" viewBox="0 0 58 58" fill="none">
    <g filter="url(#filter0_d_144_1267)">
      <path d="M28.6556 5.58282L25.0951 16.2643H14.4136L23.3148 23.3853L19.7543 34.0668L28.6556 26.9458L37.5568 34.0668L33.9963 23.3853L42.8976 16.2643H32.2161L28.6556 5.58282Z" fill="url(#paint0_linear_144_1267)" shape-rendering="crispEdges"/>
      <path d="M25.0951 16.7643H25.4555L25.5694 16.4224L28.6556 7.16396L31.7417 16.4224L31.8557 16.7643H32.2161H41.4722L33.684 22.9949L33.4117 23.2127L33.522 23.5434L36.5471 32.6187L28.9679 26.5554L28.6556 26.3055L28.3432 26.5554L20.7641 32.6187L23.7892 23.5434L23.8994 23.2127L23.6272 22.9949L15.839 16.7643H25.0951Z" stroke="#E1BE87" stroke-opacity="0.58" shape-rendering="crispEdges"/>
    </g>
    <defs>
      <filter id="filter0_d_144_1267" x="0.213574" y="0.382825" width="56.8839" height="56.884" filterUnits="userSpaceOnUse" color-interpolation-filters="sRGB">
        <feFlood flood-opacity="0" result="BackgroundImageFix"/>
        <feColorMatrix in="SourceAlpha" type="matrix" values="0 0 0 0 0 0 0 0 0 0 0 0 0 0 0 0 0 0 127 0" result="hardAlpha"/>
        <feOffset dy="9"/>
        <feGaussianBlur stdDeviation="7.1"/>
        <feComposite in2="hardAlpha" operator="out"/>
        <feColorMatrix type="matrix" values="0 0 0 0 0.344578 0 0 0 0 0.246302 0 0 0 0 0.0918692 0 0 0 1 0"/>
        <feBlend mode="normal" in2="BackgroundImageFix" result="effect1_dropShadow_144_1267"/>
        <feBlend mode="normal" in="SourceGraphic" in2="effect1_dropShadow_144_1267" result="shape"/>
      </filter>
      <linearGradient id="paint0_linear_144_1267" x1="14.4136" y1="5.58282" x2="14.4136" y2="37.5683" gradientUnits="userSpaceOnUse">
        <stop stop-color="#FACF73"/>
        <stop offset="0.249583" stop-color="#D39F32"/>
        <stop offset="0.445011" stop-color="#E38924" stop-opacity="0.855182"/>
        <stop offset="1" stop-color="#D39F32"/>
      </linearGradient>
    </defs>
  </svg>