<svg xmlns="http://www.w3.org/2000/svg" width="24" height="24" viewBox="0 0 24 24" fill="none">
  <g clip-path="url(#clip0_1126_180)">
    <path d="M23.1631 5.05611C23.0627 4.10349 22.6383 3.21423 21.9608 2.53701C21.2834 1.8598 20.394 1.43569 19.4413 1.3356C14.533 0.809358 9.58255 0.809358 4.67427 1.3356C3.72068 1.43456 2.83005 1.85818 2.15154 2.53549C1.47304 3.21281 1.04786 4.10269 0.947224 5.05611C0.423191 9.96669 0.423191 14.9191 0.947224 19.8297C1.04737 20.7825 1.47167 21.6721 2.14914 22.3496C2.82662 23.0271 3.71619 23.4514 4.66904 23.5515C9.57732 24.0777 14.5278 24.0777 19.4361 23.5515C20.3899 23.4525 21.2807 23.0287 21.9592 22.3511C22.6377 21.6735 23.0628 20.7833 23.1631 19.8297C23.6872 14.9191 23.6872 9.96669 23.1631 5.05611ZM18.3776 10.9629H17.2563C16.4273 10.9641 15.6137 10.7381 14.904 10.3095V15.0441C14.9043 15.9514 14.6355 16.8384 14.1316 17.5928C13.6278 18.3473 12.9115 18.9354 12.0734 19.2828C11.2352 19.6302 10.3129 19.7212 9.42305 19.5444C8.53318 19.3675 7.71575 18.9308 7.07412 18.2893C6.4325 17.6479 5.9955 16.8306 5.81841 15.9408C5.64132 15.051 5.73208 14.1286 6.07921 13.2904C6.42635 12.4522 7.01427 11.7357 7.76861 11.2316C8.52296 10.7275 9.40984 10.4585 10.3171 10.4585H11.441V12.6945H10.321C9.85579 12.6945 9.40101 12.8324 9.01418 13.0909C8.62735 13.3494 8.32585 13.7167 8.14781 14.1466C7.96978 14.5764 7.92319 15.0493 8.01396 15.5056C8.10472 15.9619 8.32875 16.3811 8.65772 16.71C8.98669 17.039 9.40583 17.263 9.86212 17.3538C10.3184 17.4446 10.7914 17.398 11.2212 17.22C11.651 17.0419 12.0184 16.7404 12.2769 16.3536C12.5353 15.9668 12.6733 15.512 12.6733 15.0467V5.25605H14.9119V6.3773C14.9119 7.00116 15.1597 7.59947 15.6008 8.04061C16.042 8.48175 16.6403 8.72958 17.2642 8.72958H18.3841L18.3776 10.9629Z" fill="white"/>
  </g>
  <defs>
    <clipPath id="clip0_1126_180">
      <rect width="23" height="23" fill="white" transform="translate(0.555176 0.943604)"/>
    </clipPath>
  </defs>
</svg>