<svg xmlns="http://www.w3.org/2000/svg" width="17" height="18" viewBox="0 0 17 18" fill="none">
  <g clip-path="url(#clip0_1126_197)">
    <path d="M16.7871 9.08142C16.7871 11.0806 15.1604 12.707 13.1615 12.707H10.5718C10.2855 12.707 10.0538 12.4751 10.0538 12.1891C10.0538 11.9031 10.2855 11.6711 10.5718 11.6711H13.1615C14.5893 11.6711 15.7512 10.5093 15.7512 9.08142C15.7512 7.65358 14.5893 6.4917 13.1615 6.4917H12.6436C12.3573 6.4917 12.1256 6.25979 12.1256 5.97375C12.1256 3.97462 10.4989 2.34814 8.5 2.34814C6.50112 2.34814 4.87439 3.97462 4.87439 5.97375C4.87439 6.25979 4.64274 6.4917 4.35645 6.4917H3.8385C2.41066 6.4917 1.24878 7.65358 1.24878 9.08142C1.24878 10.5093 2.41066 11.6711 3.8385 11.6711H6.42822C6.71452 11.6711 6.94617 11.9031 6.94617 12.1891C6.94617 12.4751 6.71452 12.707 6.42822 12.707H3.8385C1.83962 12.707 0.212891 11.0806 0.212891 9.08142C0.212891 7.08229 1.83962 5.45581 3.8385 5.45581H3.86738C4.12583 3.1283 6.10451 1.31226 8.5 1.31226C10.8955 1.31226 12.8742 3.1283 13.1326 5.45581H13.1615C15.1605 5.45581 16.7871 7.08229 16.7871 9.08142ZM10.2056 13.8947L9.01794 15.0823V8.56348C9.01794 8.27744 8.78629 8.04553 8.5 8.04553C8.21371 8.04553 7.98206 8.27744 7.98206 8.56348V15.0823L6.79441 13.8947C6.59202 13.6923 6.26429 13.6923 6.06204 13.8947C5.85978 14.0971 5.85965 14.4248 6.06204 14.6271L8.13381 16.6988C8.23494 16.8 8.36754 16.8506 8.5 16.8506C8.63246 16.8506 8.76506 16.8 8.86619 16.6988L10.938 14.6271C11.1404 14.4247 11.1404 14.0969 10.938 13.8947C10.7356 13.6924 10.4078 13.6923 10.2056 13.8947Z" fill="white"/>
  </g>
  <defs>
    <clipPath id="clip0_1126_197">
      <rect width="16.5742" height="16.5742" fill="white" transform="translate(0.212891 0.664795)"/>
    </clipPath>
  </defs>
</svg>