<svg xmlns="http://www.w3.org/2000/svg" width="23" height="23"
                                            viewBox="0 0 23 23" fill="none">
                                            <path
                                                d="M21.5327 17.8279L17.0802 14.8564C16.8076 14.676 16.477 14.605 16.1544 14.6575C15.8317 14.71 15.5407 14.8822 15.3394 15.1397L14.0427 16.8077C13.9627 16.9148 13.8464 16.9891 13.7155 17.0167C13.5847 17.0443 13.4483 17.0232 13.3318 16.9575L13.0857 16.82C11.6296 16.0257 10.3163 14.994 9.19975 13.7674C7.97364 12.6506 6.94159 11.3379 6.14575 9.88286L6.00824 9.63672C5.94191 9.51983 5.92067 9.3827 5.94853 9.25121C5.9764 9.11973 6.05145 9.003 6.1595 8.92307L7.82607 7.62639C8.08333 7.42485 8.2553 7.13387 8.30778 6.81131C8.36027 6.48876 8.28942 6.15827 8.10933 5.88557L5.13783 1.43313C4.95363 1.15621 4.66977 0.960948 4.34529 0.887959C4.02081 0.81497 3.68068 0.869867 3.39563 1.04124L1.53381 2.15916C0.94722 2.50398 0.517356 3.063 0.334754 3.71847C-0.336274 6.16195 0.168372 10.3779 6.38501 16.5904C11.3256 21.531 15.0039 22.8593 17.5326 22.8593C18.1144 22.8616 18.6939 22.7858 19.2556 22.6338C19.9089 22.4505 20.4658 22.0212 20.8094 21.4361L21.9287 19.5756C22.1013 19.2896 22.1565 18.9479 22.0827 18.622C22.0089 18.2962 21.8117 18.0116 21.5327 17.8279ZM21.2934 19.1961L20.1768 21.058C19.93 21.4802 19.5294 21.7906 19.0589 21.9242C16.8038 22.543 12.8629 22.0301 6.89928 16.0679C0.935655 10.1056 0.422758 6.16745 1.04291 3.90823C1.17685 3.43714 1.48774 3.03608 1.91057 2.78893L3.7724 1.67239C3.89618 1.59802 4.04386 1.57424 4.18473 1.606C4.3256 1.63775 4.44879 1.72261 4.52868 1.84289L6.14162 4.2685L7.49606 6.29946C7.57428 6.41764 7.60512 6.56094 7.58244 6.70083C7.55976 6.84073 7.48522 6.96695 7.37368 7.05436L5.70573 8.34554C5.45954 8.5333 5.28955 8.80376 5.22713 9.10702C5.1647 9.41028 5.21406 9.72589 5.36609 9.99561L5.5036 10.2362C6.32879 11.7533 7.40087 13.1223 8.67586 14.2872C9.84137 15.5657 11.2118 16.6411 12.7309 17.4691L12.9715 17.6066C13.2413 17.7586 13.5569 17.8079 13.8601 17.7455C14.1634 17.6831 14.4339 17.5131 14.6216 17.2669L15.9183 15.6004C16.0059 15.4891 16.1321 15.4147 16.2719 15.3921C16.4117 15.3694 16.5549 15.4001 16.6732 15.478L21.1256 18.4481C21.2429 18.5282 21.3254 18.6498 21.3566 18.7884C21.3877 18.927 21.3651 19.0722 21.2934 19.1948V19.1961Z"
                                                fill="#B8814F" fill-opacity="0.855182" />
                                        </svg>