<svg xmlns="http://www.w3.org/2000/svg" width="19" height="23"
                                            viewBox="0 0 19 23" fill="none">
                                            <g clip-path="url(#clip0_192_480)">
                                                <path
                                                    d="M12.8798 10.8426C13.9907 9.57787 14.6209 7.97442 14.663 6.30506C14.6747 5.58191 14.5397 4.86371 14.2659 4.19228C13.9921 3.52084 13.5849 2.9096 13.068 2.39415C12.5512 1.8787 11.935 1.46935 11.2555 1.18992C10.5759 0.910503 9.84645 0.766602 9.10965 0.766602C8.37286 0.766602 7.64342 0.910503 6.96384 1.18992C6.28425 1.46935 5.6681 1.8787 5.15126 2.39415C4.63442 2.9096 4.22722 3.52084 3.95339 4.19228C3.67956 4.86371 3.54456 5.58191 3.55627 6.30506C3.59844 7.97442 4.22858 9.57787 5.33946 10.8426C3.78314 11.5548 2.4652 12.6868 1.53935 14.1063C0.613498 15.5259 0.117899 17.1746 0.110352 18.8602V19.5587C0.110352 20.4339 0.464547 21.2733 1.09502 21.8921C1.72549 22.511 2.5806 22.8587 3.47222 22.8587H14.7541C15.6457 22.8587 16.5008 22.511 17.1313 21.8921C17.7618 21.2733 18.116 20.4339 18.116 19.5587V18.8602C18.1086 17.1746 17.613 15.5258 16.6872 14.1062C15.7613 12.6866 14.4433 11.5547 12.8868 10.8426H12.8798ZM4.35751 6.30506C4.35751 5.69257 4.48041 5.08608 4.71919 4.52022C4.95797 3.95436 5.30796 3.4402 5.74917 3.00711C6.19039 2.57402 6.71418 2.23047 7.29065 1.99608C7.86712 1.76169 8.48498 1.64106 9.10895 1.64106C9.73292 1.64106 10.3508 1.76169 10.9272 1.99608C11.5037 2.23047 12.0275 2.57402 12.4687 3.00711C12.9099 3.4402 13.2599 3.95436 13.4987 4.52022C13.7375 5.08608 13.8604 5.69257 13.8604 6.30506C13.8604 8.85568 11.741 11.9426 9.10895 11.9426C6.47689 11.9426 4.35891 8.85843 4.35891 6.30781L4.35751 6.30506ZM17.3063 19.5573C17.3056 20.2226 17.036 20.8605 16.5567 21.3309C16.0775 21.8013 15.4277 22.066 14.7499 22.0667H3.47222C2.79396 22.067 2.14328 21.8031 1.66315 21.3328C1.18303 20.8626 0.91271 20.2245 0.911597 19.5587V18.8602C0.919137 17.2768 1.39974 15.7305 2.29386 14.4126C3.18798 13.0948 4.45634 12.0634 5.94179 11.4462C6.79905 12.2442 7.92785 12.7009 9.10895 12.7277C10.2905 12.7012 11.4199 12.2445 12.2775 11.4462C13.763 12.0635 15.0313 13.0952 15.9252 14.4133C16.8191 15.7314 17.2993 17.2781 17.3063 18.8616V19.5573Z"
                                                    fill="#C29369" />
                                            </g>
                                            <defs>
                                                <clipPath id="clip0_192_480">
                                                    <rect width="18" height="22" fill="white"
                                                        transform="translate(0.109375 0.856445)" />
                                                </clipPath>
                                            </defs>
                                        </svg>