<svg xmlns="http://www.w3.org/2000/svg" width="20" height="11" viewBox="0 0 20 11" fill="none">
    <path fill-rule="evenodd" clip-rule="evenodd" d="M16.7516 6.88793C17.3748 7.49646 18.0327 8.069 18.5917 8.7389C18.8387 9.03659 19.0725 9.34379 19.2513 9.68926C19.5047 10.1804 19.2752 10.7208 18.8348 10.7501L16.0975 10.7489C15.3914 10.8075 14.8282 10.5233 14.3546 10.0405C13.9756 9.6545 13.6247 9.24365 13.2603 8.84459C13.1109 8.68148 12.9545 8.52801 12.7677 8.4067C12.394 8.16413 12.0696 8.2384 11.8561 8.62814C11.6386 9.02455 11.5892 9.46349 11.5679 9.90528C11.5386 10.5499 11.3437 10.7193 10.6962 10.7488C9.31247 10.8141 7.99922 10.6047 6.77926 9.9067C5.70369 9.29131 4.86963 8.42256 4.14368 7.43904C2.73023 5.52393 1.64781 3.41953 0.674974 1.25617C0.455996 0.768764 0.616139 0.507127 1.15392 0.497867C2.04694 0.480519 2.93983 0.481754 3.83389 0.496632C4.19683 0.501941 4.43711 0.710115 4.57725 1.053C5.0604 2.24099 5.65158 3.37125 6.39365 4.41891C6.59127 4.69784 6.79278 4.97676 7.07973 5.17308C7.39717 5.39045 7.63887 5.31841 7.78821 4.96478C7.88297 4.74056 7.92446 4.49905 7.94582 4.25889C8.01657 3.43268 8.02589 2.60788 7.9018 1.78457C7.82562 1.27074 7.5362 0.938107 7.02348 0.840872C6.76185 0.791298 6.8008 0.693941 6.92748 0.544601C7.14751 0.287038 7.35445 0.126709 7.76697 0.126709H10.8606C11.3477 0.222832 11.4558 0.441625 11.5225 0.931686L11.5252 4.3681C11.5198 4.55782 11.6199 5.12079 11.9616 5.24636C12.2351 5.33575 12.4154 5.11696 12.5795 4.94355C13.3202 4.1574 13.8488 3.22833 14.3211 2.2663C14.5307 1.84328 14.7109 1.40397 14.8856 0.965024C15.015 0.639304 15.218 0.479037 15.5849 0.486137L18.5624 0.488791C18.6507 0.488791 18.74 0.490088 18.8255 0.504719C19.3272 0.590224 19.4647 0.806053 19.3098 1.29599C19.0656 2.06467 18.5905 2.70524 18.126 3.34878C17.6295 4.03584 17.0984 4.69938 16.606 5.39052C16.1536 6.02164 16.1896 6.33977 16.7516 6.88793Z" fill="white"/>
  </svg>