<svg xmlns="http://www.w3.org/2000/svg" width="19" height="15" viewBox="0 0 19 15" fill="none">
    <path d="M18.0576 1.9667C17.3794 1.16043 16.1271 0.831543 13.7356 0.831543H5.05427C2.60799 0.831543 1.33451 1.18164 0.658802 2.04004C0 2.87699 0 4.11016 0 5.81689V9.06993C0 12.3764 0.781664 14.0552 5.05427 14.0552H13.7356C15.8095 14.0552 16.9588 13.765 17.7022 13.0535C18.4647 12.3238 18.79 11.1325 18.79 9.06993V5.81689C18.79 4.01699 18.739 2.77655 18.0576 1.9667ZM12.0632 7.89252L8.1211 9.95282C8.03297 9.99888 7.93659 10.0217 7.84034 10.0217C7.73136 10.0217 7.62262 9.99239 7.5263 9.93408C7.34495 9.82419 7.23421 9.62763 7.23421 9.4156V5.30823C7.23421 5.09657 7.34465 4.90018 7.52564 4.79023C7.70669 4.68028 7.93187 4.67276 8.11971 4.77035L12.0618 6.81737C12.2624 6.9215 12.3884 7.12856 12.3887 7.35446C12.3889 7.58055 12.2635 7.7879 12.0632 7.89252Z" fill="white"/>
  </svg>